<svg xmlns="http://www.w3.org/2000/svg" version="1.1" xmlns:xlink="http://www.w3.org/1999/xlink" xmlns:svgjs="http://svgjs.dev/svgjs" width="1500" height="1500" viewBox="0 0 1500 1500"><rect width="1500" height="1500" fill="#ffffff"></rect><g transform="matrix(0.6666666666666666,0,0,0.6666666666666666,249.39393939393938,597.0924139822503)"><svg viewBox="0 0 396 121" data-background-color="#ffffff" preserveAspectRatio="xMidYMid meet" height="458" width="1500" xmlns="http://www.w3.org/2000/svg" xmlns:xlink="http://www.w3.org/1999/xlink"><g id="tight-bounds" transform="matrix(1,0,0,1,0.2400000000000091,0.09547349830037888)"><svg viewBox="0 0 395.52 120.8090309761049" height="120.8090309761049" width="395.52"><g><svg viewBox="0 0 613.4654741277859 187.37906924219908" height="120.8090309761049" width="395.52"><g transform="matrix(1,0,0,1,0,67.79414086181276)"><svg viewBox="0 0 395.52 51.790787518573545" height="51.790787518573545" width="395.52"><g id="textblocktransform"><svg viewBox="0 0 395.52 51.790787518573545" height="51.790787518573545" width="395.52" id="textblock"><g><svg viewBox="0 0 395.52 51.790787518573545" height="51.790787518573545" width="395.52"><g transform="matrix(1,0,0,1,0,0)"><svg width="395.52" viewBox="2.2 -33.89 262.86 34.43" height="51.790787518573545" data-palette-color="#0023ff"><path d="M2.2-1.86L5.18-2.54Q5.27-2.88 5.37-4.83 5.47-6.79 5.47-9.72L5.47-9.72 5.47-18.9Q5.47-22.12 5.37-24.05 5.27-25.98 5.18-26.27L5.18-26.27 2.2-26.76 2.29-28.66 13.92-28.66Q18.65-28.66 21.14-26.9 23.63-25.15 23.63-21.78L23.63-21.78Q23.63-19.09 21.51-17.24 19.38-15.38 16.06-15.14L16.06-15.14 15.48-15.48Q20.17-15.33 22.63-13.45 25.1-11.57 25.1-8.25L25.1-8.25Q25.1-4.49 21.83-2.25 18.55 0 12.94 0L12.94 0 2.29 0 2.2-1.86ZM9.57-20.17L9.57-8.64Q9.57-6.49 9.62-4.76 9.67-3.03 9.72-2.59L9.72-2.59Q10.35-2.49 11.43-2.37 12.5-2.25 13.13-2.25L13.13-2.25Q16.89-2.25 18.77-3.61 20.65-4.98 20.65-7.76L20.65-7.76Q20.65-10.64 18.68-12.08 16.7-13.53 12.74-13.53L12.74-13.53Q10.89-13.53 10.18-13.53 9.47-13.53 8.94-13.43L8.94-13.43 8.94-15.97Q9.86-15.92 10.69-15.89 11.52-15.87 12.5-15.87L12.5-15.87Q15.72-15.87 17.46-17.29 19.19-18.7 19.19-21.29L19.19-21.29Q19.19-23.83 17.58-25.17 15.97-26.51 12.94-26.51L12.94-26.51 9.67-26.51Q9.62-26.17 9.59-24.32 9.57-22.46 9.57-20.17L9.57-20.17ZM39.11 0L28.71 0 28.61-1.81 31.78-2.49Q31.88-3.03 31.91-4.13 31.93-5.22 31.98-7.08 32.03-8.94 32.03-11.62L32.03-11.62 32.03-17.72Q32.03-19.53 32-21.48 31.98-23.44 31.96-25.2 31.93-26.95 31.88-28.2 31.83-29.44 31.83-29.83L31.83-29.83 28.22-30.32 28.12-31.88 35.1-33.89 36.03-33.2Q35.98-31.1 35.94-29.08 35.89-27.05 35.86-24.56 35.84-22.07 35.84-18.55L35.84-18.55 35.79-10.69Q35.79-7.81 35.86-5.49 35.94-3.17 36.03-2.49L36.03-2.49 39.21-1.81 39.11 0ZM62.69-3.42L62.69-3.42 65.77-2.64 65.77-1.03 59.42 0.54 58.69-0.1 58.74-3.17 58.59-3.22Q57.17-1.22 55.68-0.42 54.19 0.39 52.49 0.39L52.49 0.39Q49.21 0.39 47.02-1.64 44.82-3.66 44.82-7.71L44.82-7.71 44.82-11.91Q44.82-13.23 44.75-14.55 44.67-15.87 44.58-17.19L44.58-17.19 41.25-17.87 41.25-19.48 47.9-21.29 48.77-20.51Q48.68-18.99 48.63-17.29 48.58-15.58 48.58-13.72L48.58-13.72 48.53-8.35Q48.53-5.32 49.95-4.03 51.36-2.73 53.56-2.73L53.56-2.73Q54.88-2.73 56.25-3.42 57.61-4.1 58.64-5.76L58.64-5.76 58.64-11.43Q58.64-12.5 58.61-13.55 58.59-14.6 58.54-15.55 58.49-16.5 58.39-17.19L58.39-17.19 54.83-17.87 54.83-19.48 61.71-21.29 62.45-20.61Q62.4-19.24 62.37-18.19 62.35-17.14 62.35-16.09 62.35-15.04 62.35-13.67L62.35-13.67 62.35-10.21Q62.35-7.52 62.47-5.88 62.59-4.25 62.69-3.42ZM79.09 0.39L79.09 0.39Q76.26 0.39 73.97-0.88 71.67-2.15 70.35-4.52 69.04-6.88 69.04-10.11L69.04-10.11Q69.04-13.57 70.45-16.11 71.87-18.65 74.16-20.04 76.46-21.44 79.09-21.39L79.09-21.39Q82.9-21.34 85.05-18.87 87.2-16.41 87.2-11.82L87.2-11.82 87.2-10.94 72.21-10.94 72.21-13.09 83.98-13.09 83.44-12.45 83.44-13.48Q83.44-16.26 82.19-17.8 80.95-19.34 78.7-19.34L78.7-19.34Q77.34-19.34 76.07-18.53 74.8-17.72 74.02-16.09 73.23-14.45 73.23-11.96L73.23-11.96 73.23-11.38Q73.23-7.37 75.21-5.13 77.19-2.88 80.31-2.88L80.31-2.88Q82.07-2.88 83.42-3.54 84.76-4.2 86.03-5.76L86.03-5.76 87.25-4.64Q85.88-2.1 83.78-0.85 81.68 0.39 79.09 0.39ZM112.1 0L100.92 0 100.77-1.86 103.6-2.54Q103.7-2.73 103.72-3.39 103.75-4.05 103.77-5.52 103.8-6.98 103.8-9.47L103.8-9.47 103.84-19.38Q103.84-21.78 103.8-23.19 103.75-24.61 103.72-25.29 103.7-25.98 103.65-26.07L103.65-26.07 100.62-26.81 100.77-28.66 111.17-28.66Q116-28.66 118.69-26.54 121.37-24.41 121.37-20.41L121.37-20.41Q121.37-17.68 119.98-15.67 118.59-13.67 116.25-12.57 113.9-11.47 111.02-11.47L111.02-11.47Q109.9-11.47 108.97-11.6 108.04-11.72 107.21-11.87L107.21-11.87 107.21-14.5Q108.29-14.16 109.14-14.01 110-13.87 110.88-13.87L110.88-13.87Q113.76-13.87 115.37-15.31 116.98-16.75 116.98-19.78L116.98-19.78Q116.98-23.24 115.17-24.88 113.37-26.51 110.63-26.51L110.63-26.51 108.04-26.51Q108.04-26.22 108.02-25.17 108-24.12 107.97-22.61 107.95-21.09 107.95-19.38L107.95-19.38 108-9.47Q108-6.98 108.02-5.54 108.04-4.1 108.12-3.47 108.19-2.83 108.19-2.59L108.19-2.59 112.24-1.95 112.1 0ZM132.26 0.39L132.26 0.39Q130.31 0.39 128.79-0.39 127.28-1.17 126.43-2.39 125.57-3.61 125.57-4.93L125.57-4.93Q125.57-6.54 126.62-7.62 127.67-8.69 130.16-9.52L130.16-9.52 137.58-12.01 137.58-14.5Q137.58-15.72 136.85-16.72 136.12-17.72 134.9-18.31 133.68-18.9 132.16-18.9L132.16-18.9Q130.94-18.9 130.5-18.38 130.06-17.87 129.97-16.36L129.97-16.36 129.87-14.31Q128.11-13.92 126.89-14.43 125.67-14.94 125.67-16.11L125.67-16.11Q125.67-16.94 126.4-17.77 127.13-18.6 128.31-19.36 129.48-20.12 130.82-20.65 132.16-21.19 133.48-21.39L133.48-21.39Q137.05-21.39 139.24-19.51 141.44-17.63 141.49-14.5L141.49-14.5 141.39-6.3Q141.39-5.42 141.46-4.52 141.54-3.61 141.68-3.17L141.68-3.17 144.81-2.59 144.81-1.07 142.42-0.2Q141.73 0.1 141.15 0.24 140.56 0.39 140.17 0.39L140.17 0.39Q138.66 0.39 138.22-1.32L138.22-1.32 137.68-3.22 138.41-3.22Q136.8-1.42 135.31-0.51 133.82 0.39 132.26 0.39ZM133.58-2.49L133.58-2.49Q134.7-2.49 135.7-3 136.7-3.52 137.58-4.59L137.58-4.59 137.58-9.72 132.11-8.25Q130.94-7.96 130.43-7.32 129.92-6.69 129.92-5.71L129.92-5.71Q129.92-4.49 131.02-3.49 132.11-2.49 133.58-2.49ZM158.72 0L147.44 0 147.3-1.76 150.32-2.49Q150.37-2.73 150.42-3.34 150.47-3.96 150.5-5.05 150.52-6.15 150.52-7.71L150.52-7.71 150.57-11.52Q150.57-13.13 150.45-14.72 150.32-16.31 150.18-17.19L150.18-17.19 147.05-17.87 147.05-19.48 153.6-21.29 154.28-20.61 154.08-16.5 154.23-16.46Q155.7-19.29 157.18-20.29 158.67-21.29 160.04-21.29L160.04-21.29Q161.16-21.29 161.92-20.7 162.68-20.12 162.68-19.04L162.68-19.04Q162.68-17.92 161.87-17.29 161.07-16.65 159.85-16.65L159.85-16.65Q158.97-16.65 158.16-17.04 157.36-17.43 156.62-18.12L156.62-18.12 157.5-17.82Q156.62-17.24 155.79-16.16 154.96-15.09 154.23-13.57L154.23-13.57 154.28-9.03Q154.33-7.81 154.38-6.52 154.43-5.22 154.47-4.13 154.52-3.03 154.57-2.49L154.57-2.49 158.82-1.86 158.72 0ZM172.2 0.39L172.2 0.39Q170.24 0.39 168.73-0.39 167.22-1.17 166.36-2.39 165.51-3.61 165.51-4.93L165.51-4.93Q165.51-6.54 166.56-7.62 167.61-8.69 170.1-9.52L170.1-9.52 177.52-12.01 177.52-14.5Q177.52-15.72 176.79-16.72 176.05-17.72 174.83-18.31 173.61-18.9 172.1-18.9L172.1-18.9Q170.88-18.9 170.44-18.38 170-17.87 169.9-16.36L169.9-16.36 169.8-14.31Q168.05-13.92 166.83-14.43 165.61-14.94 165.61-16.11L165.61-16.11Q165.61-16.94 166.34-17.77 167.07-18.6 168.24-19.36 169.41-20.12 170.76-20.65 172.1-21.19 173.42-21.39L173.42-21.39Q176.98-21.39 179.18-19.51 181.38-17.63 181.43-14.5L181.43-14.5 181.33-6.3Q181.33-5.42 181.4-4.52 181.47-3.61 181.62-3.17L181.62-3.17 184.75-2.59 184.75-1.07 182.35-0.2Q181.67 0.1 181.08 0.24 180.5 0.39 180.11 0.39L180.11 0.39Q178.59 0.39 178.15-1.32L178.15-1.32 177.62-3.22 178.35-3.22Q176.74-1.42 175.25-0.51 173.76 0.39 172.2 0.39ZM173.52-2.49L173.52-2.49Q174.64-2.49 175.64-3 176.64-3.52 177.52-4.59L177.52-4.59 177.52-9.72 172.05-8.25Q170.88-7.96 170.37-7.32 169.85-6.69 169.85-5.71L169.85-5.71Q169.85-4.49 170.95-3.49 172.05-2.49 173.52-2.49ZM210.87-1.03L204.47 0.54 203.74-0.1 203.79-3.27 203.64-3.32Q202.22-1.27 200.66-0.44 199.1 0.39 197.39 0.39L197.39 0.39Q194.61 0.39 192.41-0.93 190.21-2.25 188.97-4.52 187.72-6.79 187.72-9.77L187.72-9.77Q187.72-12.35 188.6-14.5 189.48-16.65 191.02-18.19 192.56-19.73 194.51-20.56 196.46-21.39 198.56-21.39L198.56-21.39Q199.88-21.39 201.32-21.04 202.76-20.7 203.74-19.97L203.74-19.97Q203.74-20.85 203.71-22.27 203.69-23.68 203.66-25.22 203.64-26.76 203.62-27.95 203.59-29.15 203.54-29.59L203.54-29.59 199.73-30.27 199.64-31.88 206.81-33.89 207.69-33.2Q207.59-30.18 207.55-27.34 207.5-24.51 207.5-21.44L207.5-21.44 207.45-10.21Q207.45-7.71 207.57-5.93 207.69-4.15 207.74-3.42L207.74-3.42 210.87-2.64 210.87-1.03ZM198.61-2.88L198.61-2.88Q199.98-2.88 201.22-3.49 202.47-4.1 203.74-5.66L203.74-5.66 203.74-16.16Q202.81-17.82 201.39-18.51 199.98-19.19 198.56-19.19L198.56-19.19Q195.49-19.19 193.75-16.92 192.02-14.65 192.02-11.04L192.02-11.04Q192.02-7.13 193.95-5 195.88-2.88 198.61-2.88ZM223.95 0L213.4 0 213.31-1.81 216.58-2.49Q216.63-2.69 216.65-3.17 216.67-3.66 216.72-4.74 216.77-5.81 216.77-7.71L216.77-7.71 216.77-10.94Q216.77-12.99 216.67-14.65 216.58-16.31 216.43-17.19L216.43-17.19 213.16-17.87 213.16-19.48 220.09-21.29 220.82-20.61Q220.68-19.09 220.6-17.63 220.53-16.16 220.53-14.21L220.53-14.21 220.53-8.06Q220.53-5.81 220.6-4.35 220.68-2.88 220.78-2.49L220.78-2.49 224.05-1.81 223.95 0ZM218.68-26.81L218.68-26.81Q217.41-26.81 216.53-27.64 215.65-28.47 215.65-29.69L215.65-29.69Q215.65-30.86 216.53-31.71 217.41-32.57 218.68-32.57L218.68-32.57Q219.95-32.57 220.78-31.71 221.61-30.86 221.61-29.69L221.61-29.69Q221.61-28.47 220.78-27.64 219.95-26.81 218.68-26.81ZM234.74 0.39L234.74 0.39Q232.93 0.39 231.12-0.02 229.32-0.44 228.05-1.12L228.05-1.12 227.8-6.35 230.2-6.35 231.17-2.83Q232.79-1.66 235.08-1.66L235.08-1.66Q236.69-1.66 237.74-2.47 238.79-3.27 238.79-4.64L238.79-4.64Q238.79-5.96 237.86-6.88 236.94-7.81 234.25-8.94L234.25-8.94Q230.78-10.45 229.37-11.87 227.95-13.28 227.95-15.43L227.95-15.43Q227.95-17.19 229-18.53 230.05-19.87 231.91-20.63 233.76-21.39 236.2-21.39L236.2-21.39Q237.57-21.39 238.99-21.17 240.4-20.95 241.33-20.51L241.33-20.51 241.87-15.43 239.57-15.43 238.4-18.75Q237.91-19.04 237.23-19.21 236.54-19.38 235.76-19.38L235.76-19.38Q234.05-19.38 233.03-18.58 232-17.77 232-16.5L232-16.5Q232-15.04 233.13-14.14 234.25-13.23 237.08-11.91L237.08-11.91Q240.3-10.45 241.57-9.03 242.84-7.62 242.84-5.62L242.84-5.62Q242.84-2.98 240.55-1.29 238.25 0.39 234.74 0.39ZM256.9 0.39L256.9 0.39Q254.07 0.39 251.78-0.88 249.48-2.15 248.16-4.52 246.85-6.88 246.85-10.11L246.85-10.11Q246.85-13.57 248.26-16.11 249.68-18.65 251.97-20.04 254.27-21.44 256.9-21.39L256.9-21.39Q260.71-21.34 262.86-18.87 265.01-16.41 265.01-11.82L265.01-11.82 265.01-10.94 250.02-10.94 250.02-13.09 261.79-13.09 261.25-12.45 261.25-13.48Q261.25-16.26 260-17.8 258.76-19.34 256.51-19.34L256.51-19.34Q255.15-19.34 253.88-18.53 252.61-17.72 251.83-16.09 251.04-14.45 251.04-11.96L251.04-11.96 251.04-11.38Q251.04-7.37 253.02-5.13 255-2.88 258.12-2.88L258.12-2.88Q259.88-2.88 261.22-3.54 262.57-4.2 263.84-5.76L263.84-5.76 265.06-4.64Q263.69-2.1 261.59-0.85 259.49 0.39 256.9 0.39Z" opacity="1" transform="matrix(1,0,0,1,0,0)" fill="#0023ff" class="wordmark-text-0" data-fill-palette-color="primary" id="text-0"></path></svg></g></svg></g></svg></g></svg></g><g transform="matrix(1,0,0,1,426.0864048855869,0)"><svg viewBox="0 0 187.37906924219908 187.37906924219908" height="187.37906924219908" width="187.37906924219908"><g><svg viewBox="0 0 187.37906924219908 187.37906924219908" height="187.37906924219908" width="187.37906924219908"><g transform="matrix(1,0,0,1,49.52386444990534,58.6970847552677)"><svg viewBox="0 0 88.3313403423884 69.98489973166367" height="69.98489973166367" width="88.3313403423884"><g><svg xmlns="http://www.w3.org/2000/svg" xmlns:xlink="http://www.w3.org/1999/xlink" version="1.1" x="0" y="0" viewBox="11.873928871476872 24.329 120.33450575586694 95.34100000000001" enable-background="new 0 0 144.083 144" xml:space="preserve" height="69.98489973166367" width="88.3313403423884" class="icon-cg-0" data-fill-palette-color="accent" id="cg-0"><path d="M132.123 84.01l-10.002-40.911c-0.328-1.343-1.531-2.288-2.914-2.288H50.291V27.329c0-1.657-1.343-3-3-3h-14c-1.657 0-3 1.343-3 3v13.482h-5.416c-1.382 0-2.586 0.945-2.914 2.288L11.96 84.01c-0.219 0.895-0.015 1.84 0.554 2.564s1.439 1.147 2.36 1.147h1.733v28.949c0 1.657 1.343 3 3 3h33.275 9.746 18.824 9.746 33.275c1.657 0 3-1.343 3-3V87.722h1.734c0.921 0 1.791-0.423 2.359-1.147C132.137 85.85 132.341 84.904 132.123 84.01zM125.386 81.722H94.199V67.257c0-0.707-0.25-1.391-0.705-1.932l-7.123-8.46h32.938L125.386 81.722zM72.217 49.369l15.981 18.982v45.319h-4.996V86.603c0-1.657-1.343-3-3-3H63.878c-1.657 0-3 1.343-3 3v27.068h-4.996V68.369L72.217 49.369zM66.878 112.86V89.603h10.324v23.258H66.878zM117.842 50.864H81.32l-3.412-4.053h38.944L117.842 50.864zM36.291 30.329h8v10.482h-8V30.329zM66.504 46.812l-3.484 4.053H26.239l0.991-4.053H66.504zM24.772 56.864h33.089l-7.254 8.437c-0.468 0.544-0.725 1.238-0.725 1.956v14.465H18.696L24.772 56.864zM22.607 87.722h27.275v25.949h-4.638v-12.537c0-5.24-4.264-9.504-9.505-9.504-5.24 0-9.504 4.264-9.504 9.504v12.537h-3.629V87.722zM39.245 113.671h-7.009v-12.537c0-1.933 1.572-3.504 3.504-3.504 1.933 0 3.505 1.571 3.505 3.504V113.671zM111.212 113.671h-7.006v-12.537c0-1.933 1.571-3.504 3.502-3.504 1.932 0 3.504 1.571 3.504 3.504V113.671zM121.474 113.671h-4.262v-12.537c0-5.24-4.264-9.504-9.504-9.504-5.239 0-9.502 4.264-9.502 9.504v12.537h-4.008V87.722h27.275V113.671z" fill="#0023ff" data-fill-palette-color="accent"></path></svg></g></svg></g><g id="text-0"><path d="M14.703 71.928l0.168-1.586c-0.103-0.07-0.472-0.231-1.108-0.483-0.627-0.256-1.425-0.548-2.393-0.878v0l-4.532-1.541c-1.064-0.362-1.919-0.632-2.566-0.81-0.65-0.186-1.029-0.279-1.134-0.279v0l-0.738 1.391-0.925-0.367 1.956-5.748c0.532-1.564 1.225-2.657 2.079-3.278 0.863-0.625 1.848-0.749 2.957-0.372v0c0.887 0.302 1.514 0.907 1.883 1.817 0.377 0.906 0.418 1.919 0.121 3.041v0l-0.261 0.24c0.57-1.53 1.304-2.598 2.203-3.205 0.896-0.6 1.893-0.713 2.988-0.34v0c1.235 0.42 2.04 1.295 2.415 2.624 0.373 1.335 0.244 2.927-0.385 4.776v0l-1.791 5.264zM6.899 65.203l5.691 1.936c0.709 0.241 1.352 0.449 1.929 0.624 0.574 0.181 0.938 0.287 1.09 0.318v0c0.103-0.198 0.237-0.467 0.401-0.807 0.157-0.335 0.27-0.608 0.342-0.817v0c0.422-1.241 0.514-2.249 0.275-3.022-0.239-0.774-0.817-1.317-1.735-1.629v0c-0.95-0.323-1.774-0.239-2.471 0.251-0.697 0.491-1.267 1.389-1.711 2.693v0c-0.207 0.608-0.35 1.029-0.43 1.264-0.08 0.234-0.134 0.446-0.162 0.633v0l-1.254-0.426c0.122-0.298 0.233-0.581 0.332-0.852 0.101-0.277 0.206-0.573 0.313-0.89v0c0.362-1.064 0.409-1.96 0.14-2.687-0.273-0.736-0.836-1.249-1.691-1.54v0c-0.836-0.284-1.566-0.236-2.191 0.145-0.624 0.381-1.107 1.072-1.447 2.073v0l-0.549 1.615c0.11 0.051 0.47 0.188 1.079 0.41 0.606 0.213 1.289 0.449 2.049 0.708z" fill="#0023ff" data-fill-palette-color="accent"></path><path d="M25.947 49.215l-2.795 4.654-0.834-0.442 0.542-1.606c-0.143-0.125-0.375-0.292-0.695-0.499-0.323-0.202-0.757-0.474-1.301-0.816-0.546-0.351-1.221-0.768-2.023-1.25v0l-2.728-1.638c-0.539-0.324-1.103-0.658-1.691-1.004-0.592-0.34-1.151-0.664-1.676-0.971-0.525-0.308-0.98-0.565-1.363-0.771-0.38-0.212-0.627-0.353-0.741-0.422v0l-1.195 1.483-0.723-0.375 0.98-3.661 0.549-0.232c0.624 0.39 1.232 0.775 1.824 1.154 0.595 0.373 1.262 0.789 2.002 1.248 0.742 0.453 1.638 0.995 2.687 1.626v0l3.509 2.13c0.855 0.513 1.634 0.969 2.338 1.368 0.708 0.394 1.171 0.637 1.389 0.729v0l1.162-1.234z" fill="#0023ff" data-fill-palette-color="accent"></path><path d="M36.478 33.921v0l1.39-0.903 0.62 0.571-1.645 2.987-0.502 0.056-1.167-1.102-0.07 0.031c0.177 0.835 0.191 1.54 0.045 2.115-0.142 0.569-0.415 1.073-0.818 1.511v0c-0.77 0.837-1.674 1.3-2.713 1.39-1.038 0.081-2.074-0.355-3.107-1.306v0l-1.617-1.489c-0.34-0.313-0.686-0.613-1.039-0.901-0.353-0.298-0.711-0.586-1.073-0.865v0l-1.434 1.025-0.621-0.571 1.651-3.186 0.616-0.061c0.366 0.383 0.761 0.783 1.186 1.201 0.429 0.413 0.88 0.837 1.352 1.273v0l2.047 1.925c0.773 0.711 1.492 1.037 2.156 0.976 0.67-0.056 1.263-0.365 1.78-0.926v0c0.313-0.34 0.541-0.766 0.686-1.278 0.149-0.508 0.13-1.09-0.058-1.745v0l-2.178-2.005c-0.271-0.249-0.544-0.496-0.819-0.74-0.275-0.244-0.54-0.47-0.795-0.677-0.255-0.217-0.482-0.39-0.682-0.519v0l-1.523 1.121-0.62-0.571 1.739-3.282 0.524-0.036c0.34 0.332 0.644 0.624 0.91 0.879 0.257 0.255 0.52 0.506 0.791 0.755 0.266 0.245 0.576 0.53 0.931 0.857v0l1.329 1.223c0.689 0.634 1.259 1.127 1.708 1.478 0.446 0.356 0.785 0.619 1.02 0.789z" fill="#0023ff" data-fill-palette-color="accent"></path><path d="M49.296 26.29v0c-0.811 0.557-1.672 0.88-2.584 0.97-0.906 0.087-1.783-0.078-2.628-0.495-0.841-0.421-1.579-1.094-2.216-2.021v0c-0.682-0.993-1.071-1.991-1.169-2.996-0.096-1.014 0.048-1.944 0.432-2.792 0.389-0.852 0.965-1.531 1.729-2.039v0c1.103-0.733 2.206-0.959 3.308-0.677 1.102 0.282 2.106 1.082 3.012 2.399v0l0.261 0.381-6.452 4.431-0.637-0.927 5.063-3.476-0.044 0.432-0.301-0.439c-0.549-0.8-1.154-1.297-1.816-1.492-0.656-0.199-1.307-0.077-1.952 0.367v0c-0.392 0.269-0.69 0.644-0.895 1.126-0.205 0.482-0.259 1.034-0.163 1.658 0.096 0.624 0.39 1.295 0.882 2.011v0l0.17 0.249c0.788 1.147 1.687 1.848 2.699 2.103 1.011 0.255 1.966 0.074 2.865-0.543v0c0.502-0.345 0.881-0.743 1.138-1.196 0.253-0.458 0.409-1.036 0.466-1.732v0l0.857 0.13c0.108 0.997-0.015 1.881-0.37 2.652-0.359 0.766-0.91 1.404-1.655 1.916z" fill="#0023ff" data-fill-palette-color="accent"></path><path d="M76.366 14.693l-5.667 1.373-0.307-0.927 1.351-0.689c0.017-0.073 0.004-0.225-0.038-0.455-0.047-0.223-0.127-0.582-0.24-1.078-0.107-0.497-0.262-1.169-0.467-2.014v0l-1.2-5.037c-0.195-0.806-0.358-1.448-0.487-1.927-0.136-0.476-0.235-0.828-0.297-1.053-0.07-0.231-0.115-0.361-0.136-0.391v0l-1.631 0.003-0.148-0.955 5.276-1.278c1.639-0.397 2.996-0.347 4.073 0.149 1.085 0.501 1.792 1.428 2.119 2.78v0c0.224 0.923 0.183 1.78-0.121 2.569-0.309 0.798-0.816 1.478-1.519 2.041-0.703 0.563-1.54 0.962-2.508 1.196v0c-0.384 0.093-0.736 0.158-1.058 0.195-0.323 0.03-0.633 0.057-0.93 0.08v0l-0.326-1.345c0.392 0.029 0.741 0.034 1.046 0.014 0.297-0.024 0.595-0.072 0.895-0.144v0c0.975-0.236 1.677-0.664 2.105-1.284 0.43-0.613 0.52-1.434 0.271-2.461v0c-0.284-1.17-0.799-1.961-1.546-2.373-0.745-0.405-1.583-0.494-2.512-0.269v0l-1.307 0.317c0.025 0.104 0.074 0.333 0.146 0.687 0.08 0.359 0.179 0.796 0.297 1.312 0.116 0.509 0.245 1.052 0.385 1.631v0l1.239 5.028c0.205 0.845 0.369 1.511 0.494 1.997 0.131 0.484 0.232 0.832 0.304 1.042 0.078 0.208 0.126 0.351 0.145 0.429v0l2.136-0.177z" fill="#0023ff" data-fill-palette-color="accent"></path><path d="M92.727 13.019v0c-0.682 0.008-1.286-0.119-1.811-0.38-0.532-0.268-0.95-0.611-1.256-1.03-0.299-0.425-0.452-0.868-0.457-1.329v0c-0.006-0.555 0.172-1.022 0.535-1.401 0.357-0.379 0.968-0.717 1.835-1.015v0l3.858-1.35-0.015-1.304c-0.005-0.421-0.136-0.805-0.395-1.15-0.258-0.345-0.603-0.619-1.033-0.821-0.424-0.196-0.9-0.291-1.428-0.284v0c-0.428 0.005-0.715 0.095-0.86 0.271-0.152 0.182-0.241 0.538-0.269 1.067v0l-0.047 1.074c-0.607 0.141-1.123 0.123-1.547-0.052-0.43-0.169-0.648-0.457-0.652-0.866v0c-0.003-0.294 0.12-0.587 0.371-0.877 0.251-0.291 0.579-0.569 0.984-0.834 0.405-0.272 0.84-0.505 1.307-0.698 0.466-0.193 0.93-0.325 1.39-0.398v0c1.238-0.014 2.242 0.302 3.012 0.949 0.777 0.647 1.178 1.512 1.204 2.595v0l0 4.286c0.004 0.308 0.021 0.619 0.051 0.932 0.03 0.314 0.07 0.548 0.118 0.701v0l1.64 0.282 0.009 0.793-1.249 0.476c-0.233 0.103-0.453 0.183-0.66 0.239-0.2 0.049-0.367 0.075-0.501 0.076v0c-0.528 0.006-0.873-0.288-1.034-0.881v0l-0.292-0.99 0.381-0.005c-0.555 0.635-1.088 1.113-1.599 1.434-0.518 0.32-1.048 0.484-1.59 0.49zM93.402 11.506v0c0.388-0.005 0.755-0.096 1.101-0.274 0.346-0.185 0.67-0.466 0.973-0.844v0l-0.031-2.679-2.851 0.805c-0.407 0.105-0.696 0.269-0.867 0.492-0.178 0.223-0.265 0.505-0.261 0.846v0c0.005 0.421 0.2 0.804 0.585 1.148 0.385 0.343 0.836 0.512 1.351 0.506z" fill="#0023ff" data-fill-palette-color="accent"></path><path d="M112.431 14.917l-5.773-1.174 0.104-0.911 1.632-0.068c0.029-0.076 0.075-0.217 0.137-0.422 0.056-0.207 0.128-0.496 0.217-0.868 0.083-0.372 0.178-0.824 0.286-1.355v0l0.418-1.953c0.111-0.544 0.202-1.092 0.273-1.644 0.071-0.552 0.111-0.981 0.118-1.287v0l-1.521-0.678 0.168-0.826 3.532-0.244 0.282 0.426-0.535 2.072 0.073 0.046c0.696-0.869 1.334-1.422 1.914-1.659 0.574-0.238 1.094-0.31 1.56-0.215v0c0.387 0.079 0.687 0.246 0.902 0.501 0.222 0.25 0.296 0.559 0.221 0.926v0c-0.079 0.387-0.278 0.66-0.597 0.82-0.319 0.16-0.689 0.198-1.109 0.113v0c-0.302-0.061-0.573-0.188-0.813-0.381-0.249-0.187-0.474-0.424-0.675-0.711v0l0.411 0.248c-0.335 0.137-0.684 0.359-1.047 0.668-0.357 0.31-0.712 0.698-1.067 1.165v0l-0.443 2.327c-0.071 0.416-0.142 0.848-0.212 1.298-0.076 0.442-0.143 0.852-0.199 1.229-0.063 0.376-0.103 0.658-0.121 0.846v0l2.107 0.767z" fill="#0023ff" data-fill-palette-color="accent"></path><path d="M124.837 19.268v0c-0.629-0.264-1.133-0.62-1.511-1.068-0.381-0.457-0.63-0.938-0.744-1.444-0.106-0.509-0.07-0.976 0.109-1.401v0c0.215-0.512 0.564-0.87 1.048-1.074 0.478-0.206 1.174-0.273 2.087-0.202v0l4.077 0.294 0.504-1.203c0.163-0.389 0.194-0.793 0.094-1.212-0.1-0.419-0.307-0.807-0.622-1.164-0.311-0.348-0.71-0.624-1.198-0.828v0c-0.395-0.165-0.694-0.196-0.897-0.093-0.212 0.107-0.435 0.398-0.67 0.872v0l-0.47 0.967c-0.613-0.112-1.079-0.333-1.399-0.662-0.328-0.326-0.413-0.677-0.254-1.053v0c0.114-0.271 0.343-0.491 0.689-0.658 0.346-0.167 0.757-0.292 1.234-0.375 0.48-0.089 0.972-0.129 1.476-0.121 0.504 0.008 0.982 0.071 1.434 0.187v0c1.141 0.478 1.937 1.167 2.387 2.067 0.456 0.902 0.481 1.855 0.075 2.86v0l-1.703 3.933c-0.119 0.284-0.227 0.576-0.323 0.876-0.097 0.3-0.153 0.531-0.17 0.69v0l1.392 0.91-0.306 0.731-1.336-0.059c-0.255 0.002-0.488-0.012-0.7-0.043-0.203-0.034-0.367-0.077-0.49-0.129v0c-0.487-0.204-0.687-0.611-0.598-1.219v0l0.124-1.025 0.352 0.147c-0.761 0.363-1.44 0.59-2.037 0.681-0.603 0.088-1.154 0.028-1.654-0.182zM126.058 18.147v0c0.358 0.15 0.731 0.212 1.119 0.186 0.391-0.032 0.8-0.161 1.228-0.388v0l1.036-2.471-2.936-0.393c-0.415-0.065-0.746-0.03-0.992 0.107-0.252 0.134-0.444 0.358-0.575 0.673v0c-0.163 0.389-0.136 0.817 0.081 1.285 0.217 0.468 0.563 0.802 1.039 1.001z" fill="#0023ff" data-fill-palette-color="accent"></path><path d="M147.434 32.221l-3.176-1.317-0.113-0.492 1.002-1.319-0.047-0.071c-0.822 0.285-1.537 0.384-2.144 0.296-0.607-0.088-1.151-0.308-1.631-0.659v0c-0.783-0.573-1.348-1.268-1.695-2.086-0.348-0.827-0.465-1.687-0.35-2.581 0.121-0.89 0.487-1.753 1.099-2.59v0c0.533-0.729 1.143-1.307 1.828-1.734 0.687-0.418 1.404-0.684 2.153-0.8 0.748-0.116 1.484-0.091 2.208 0.074 0.715 0.167 1.37 0.468 1.964 0.902v0c0.367 0.269 0.718 0.6 1.052 0.993 0.334 0.393 0.563 0.794 0.688 1.201v0c0.182-0.248 0.416-0.574 0.703-0.978 0.278-0.402 0.572-0.821 0.883-1.257 0.311-0.436 0.588-0.826 0.831-1.17 0.234-0.343 0.391-0.58 0.471-0.712v0l-1.396-1.457 0.457-0.71 3.637 1.368 0.165 0.556c-0.651 0.833-1.275 1.641-1.872 2.423-0.595 0.791-1.209 1.619-1.841 2.482v0l-3.485 4.712c-0.514 0.702-0.936 1.313-1.267 1.834-0.33 0.53-0.564 0.901-0.703 1.114v0l1.077 1.298zM142.842 27.655v0c0.383 0.28 0.814 0.463 1.291 0.547 0.473 0.089 1.05 0.043 1.731-0.139v0l3.235-4.422c0.081-0.654-0.008-1.224-0.265-1.711-0.257-0.487-0.583-0.874-0.977-1.163v0c-0.864-0.632-1.777-0.807-2.738-0.523-0.952 0.282-1.799 0.93-2.542 1.945v0c-0.802 1.096-1.149 2.143-1.043 3.141 0.105 0.989 0.541 1.764 1.308 2.325z" fill="#0023ff" data-fill-palette-color="accent"></path><path d="M156.081 41.965l-3.681-4.085 0.667-0.669 1.41 1.025c0.059-0.035 0.155-0.103 0.288-0.205 0.134-0.111 0.342-0.285 0.624-0.522 0.292-0.236 0.684-0.575 1.176-1.018v0l1.252-1.129c0.532-0.479 1-0.924 1.405-1.334 0.41-0.414 0.709-0.742 0.897-0.983v0l-0.873-1.51 0.626-0.564 3.126 2.06-0.013 0.525c-0.428 0.314-0.841 0.631-1.237 0.952-0.391 0.325-0.84 0.717-1.347 1.173v0l-2.385 2.15c-0.582 0.524-1.054 0.964-1.419 1.319-0.36 0.36-0.578 0.598-0.655 0.712v0l0.873 1.509zM164.64 30.551v0c-0.296-0.328-0.44-0.703-0.432-1.123 0.008-0.421 0.171-0.775 0.489-1.062v0c0.303-0.273 0.667-0.394 1.092-0.363 0.43 0.027 0.792 0.205 1.088 0.533v0c0.296 0.328 0.428 0.7 0.397 1.115-0.026 0.411-0.191 0.753-0.494 1.026v0c-0.318 0.287-0.68 0.419-1.087 0.398-0.406-0.021-0.757-0.196-1.053-0.524z" fill="#0023ff" data-fill-palette-color="accent"></path><path d="M162.724 51.826v0c-0.333-0.533-0.607-1.104-0.82-1.712-0.208-0.611-0.33-1.166-0.366-1.665v0l2.247-1.556 0.664 1.064-1.287 1.407c-0.052 0.687 0.135 1.371 0.56 2.052v0c0.298 0.477 0.661 0.794 1.091 0.951 0.433 0.163 0.851 0.119 1.255-0.132v0c0.392-0.245 0.638-0.588 0.74-1.031 0.104-0.452 0.075-1.175-0.088-2.169v0c-0.193-1.307-0.212-2.297-0.057-2.97 0.158-0.682 0.554-1.222 1.19-1.618v0c0.516-0.322 1.069-0.455 1.657-0.396 0.592 0.064 1.171 0.302 1.736 0.714 0.567 0.403 1.076 0.965 1.526 1.685v0c0.252 0.403 0.474 0.836 0.669 1.298 0.2 0.459 0.32 0.865 0.359 1.22v0l-2.098 1.641-0.633-1.013 1.148-1.439c-0.007-0.201-0.047-0.416-0.12-0.646-0.077-0.236-0.187-0.471-0.332-0.704v0c-0.315-0.505-0.686-0.833-1.113-0.985-0.426-0.152-0.826-0.111-1.201 0.123v0c-0.431 0.269-0.677 0.652-0.738 1.148-0.058 0.501-0.022 1.291 0.107 2.37v0c0.164 1.223 0.153 2.152-0.033 2.789-0.186 0.637-0.574 1.139-1.164 1.508v0c-0.777 0.485-1.628 0.544-2.553 0.174-0.915-0.367-1.697-1.07-2.346-2.108z" fill="#0023ff" data-fill-palette-color="accent"></path><path d="M170.11 67.748v0c-0.334-0.925-0.43-1.84-0.288-2.745 0.145-0.899 0.525-1.705 1.143-2.419 0.619-0.708 1.457-1.252 2.514-1.634v0c1.133-0.409 2.197-0.534 3.194-0.375 1.005 0.163 1.869 0.537 2.593 1.122 0.726 0.591 1.238 1.32 1.537 2.187v0c0.431 1.253 0.372 2.377-0.179 3.372-0.551 0.996-1.578 1.765-3.082 2.309v0l-0.434 0.157-2.66-7.361 1.057-0.382 2.087 5.775-0.407-0.151 0.5-0.181c0.912-0.33 1.546-0.79 1.902-1.381 0.358-0.585 0.404-1.245 0.138-1.981v0c-0.161-0.447-0.449-0.83-0.864-1.15-0.414-0.32-0.936-0.512-1.563-0.576-0.628-0.065-1.351 0.051-2.169 0.346v0l-0.283 0.102c-1.309 0.473-2.214 1.167-2.716 2.081-0.502 0.914-0.568 1.884-0.197 2.909v0c0.207 0.573 0.497 1.04 0.87 1.404 0.379 0.361 0.899 0.657 1.558 0.888v0l-0.342 0.796c-0.992-0.147-1.816-0.489-2.473-1.027-0.651-0.54-1.129-1.235-1.436-2.085z" fill="#0023ff" data-fill-palette-color="accent"></path><path d="M5.515 119.498l1.001 1.594c0.146-0.009 0.604-0.129 1.374-0.358 0.764-0.228 1.713-0.542 2.849-0.944v0l5.307-1.878c1.249-0.442 2.239-0.813 2.969-1.115 0.731-0.301 1.146-0.491 1.247-0.568v0l-0.339-1.829 1.127-0.335 2.384 6.736c0.645 1.823 0.798 3.337 0.458 4.543-0.336 1.197-1.153 2.026-2.453 2.486v0c-1.041 0.368-2.062 0.268-3.065-0.299-1.009-0.565-1.787-1.472-2.335-2.719v0l0.078-0.411c0.584 1.83 0.681 3.35 0.293 4.559-0.388 1.209-1.223 2.04-2.502 2.493v0c-1.451 0.513-2.834 0.293-4.151-0.66-1.313-0.962-2.352-2.525-3.118-4.688v0l-2.182-6.168zM17.624 120.025l-6.67 2.36c-0.833 0.295-1.58 0.57-2.241 0.825-0.662 0.255-1.075 0.423-1.238 0.502v0c0.047 0.253 0.122 0.596 0.225 1.028 0.097 0.434 0.189 0.774 0.276 1.02v0c0.513 1.451 1.163 2.445 1.949 2.983 0.786 0.538 1.716 0.617 2.788 0.237v0c1.11-0.393 1.811-1.07 2.102-2.032 0.285-0.96 0.157-2.202-0.382-3.728v0c-0.254-0.719-0.43-1.214-0.526-1.486-0.096-0.271-0.2-0.504-0.311-0.698v0l1.466-0.519c0.108 0.366 0.215 0.708 0.321 1.025 0.101 0.326 0.219 0.678 0.352 1.057v0c0.44 1.242 1.052 2.101 1.838 2.575 0.779 0.477 1.67 0.537 2.672 0.183v0c0.978-0.346 1.616-0.919 1.914-1.72 0.303-0.81 0.247-1.798-0.165-2.965v0l-0.67-1.892c-0.139 0.028-0.57 0.163-1.294 0.405-0.715 0.246-1.517 0.526-2.406 0.84z" fill="#0023ff" data-fill-palette-color="accent"></path><path d="M16.607 146.294l-3.346-5.435 0.917-0.635 1.371 1.442c0.209-0.082 0.506-0.237 0.891-0.467 0.394-0.227 0.919-0.53 1.573-0.909 0.66-0.383 1.457-0.862 2.392-1.437v0l3.196-1.968c0.627-0.386 1.278-0.795 1.954-1.227 0.674-0.423 1.316-0.83 1.924-1.22 0.606-0.381 1.123-0.715 1.552-1.003 0.422-0.284 0.702-0.468 0.838-0.552v0l-0.906-2.046 0.78-0.551 3.298 3.002-0.059 0.708c-0.745 0.435-1.477 0.862-2.194 1.28-0.717 0.418-1.512 0.888-2.384 1.409-0.869 0.527-1.919 1.17-3.15 1.928v0l-4.126 2.505c-1.003 0.617-1.901 1.186-2.697 1.707-0.791 0.527-1.296 0.881-1.514 1.062v0l0.67 1.874z" fill="#0023ff" data-fill-palette-color="accent"></path><path d="M31.813 160.695v0l0.938 1.706-0.718 0.672-3.372-2.19-0.016-0.59 1.398-1.268-0.04-0.086c-0.994 0.133-1.821 0.092-2.481-0.124-0.655-0.22-1.223-0.587-1.703-1.1v0c-0.915-0.977-1.378-2.078-1.39-3.304-0.007-1.221 0.595-2.399 1.806-3.533v0l1.882-1.763c0.396-0.37 0.777-0.751 1.145-1.141 0.377-0.39 0.75-0.785 1.118-1.185v0l-1.085-1.775 0.718-0.672 3.598 2.212 0.019 0.725c-0.482 0.396-0.983 0.824-1.505 1.285-0.526 0.466-1.066 0.957-1.617 1.474v0l-2.43 2.235c-0.903 0.846-1.349 1.662-1.337 2.448 0.003 0.786 0.313 1.508 0.93 2.167v0c0.366 0.391 0.843 0.695 1.432 0.914 0.589 0.218 1.277 0.248 2.063 0.088v0l2.535-2.373c0.322-0.302 0.635-0.604 0.938-0.906 0.308-0.298 0.599-0.589 0.874-0.873 0.27-0.28 0.493-0.531 0.67-0.752v0l-1.187-1.885 0.718-0.672 3.7 2.322 0.002 0.618c-0.424 0.369-0.797 0.696-1.119 0.978-0.317 0.288-0.632 0.578-0.944 0.871-0.317 0.297-0.679 0.636-1.084 1.015v0l-1.553 1.454c-0.806 0.755-1.437 1.378-1.893 1.869-0.452 0.496-0.788 0.876-1.01 1.139z" fill="#0023ff" data-fill-palette-color="accent"></path><path d="M43.294 172.529v0c-0.96-0.646-1.686-1.449-2.177-2.409-0.49-0.95-0.688-1.979-0.597-3.086 0.097-1.104 0.516-2.205 1.256-3.304v0c0.792-1.177 1.716-2.035 2.772-2.574 1.062-0.535 2.142-0.78 3.24-0.735 1.1 0.055 2.091 0.391 2.973 1.009v0c1.282 0.887 2.008 1.996 2.177 3.327 0.163 1.327-0.28 2.771-1.33 4.331v0l-0.302 0.449-7.635-5.137 0.739-1.099 5.995 4.034-0.493 0.139 0.353-0.524c0.635-0.944 0.917-1.818 0.846-2.624-0.071-0.806-0.489-1.466-1.255-1.981v0c-0.466-0.314-1.005-0.478-1.615-0.494-0.616-0.019-1.244 0.159-1.884 0.534-0.644 0.381-1.249 0.994-1.817 1.838v0l-0.202 0.3c-0.915 1.36-1.29 2.648-1.124 3.864 0.156 1.218 0.764 2.183 1.825 2.897v0c0.594 0.4 1.198 0.641 1.812 0.722 0.605 0.084 1.3 0.004 2.085-0.241v0l0.238 0.994c-1.049 0.552-2.07 0.8-3.065 0.745-1-0.06-1.938-0.385-2.815-0.975z" fill="#0023ff" data-fill-palette-color="accent"></path><path d="M73.582 184.867l-6.676-1.641 0.186-1.133 1.794 0.018c0.058-0.068 0.123-0.235 0.195-0.5 0.077-0.257 0.19-0.677 0.341-1.26 0.155-0.575 0.355-1.36 0.599-2.353v0l1.481-5.899c0.235-0.955 0.411-1.714 0.529-2.277 0.119-0.57 0.206-0.993 0.26-1.269 0.061-0.274 0.086-0.434 0.076-0.478v0l-1.707-0.874 0.361-1.089 6.207 1.526c1.923 0.473 3.313 1.262 4.172 2.368 0.858 1.107 1.091 2.456 0.699 4.048v0c-0.267 1.085-0.774 1.959-1.523 2.622-0.747 0.657-1.639 1.092-2.677 1.305-1.043 0.205-2.135 0.167-3.279-0.113v0c-0.448-0.11-0.851-0.237-1.208-0.38-0.353-0.135-0.687-0.272-1.005-0.412v0l0.386-1.569c0.397 0.235 0.757 0.424 1.08 0.565 0.323 0.142 0.661 0.255 1.012 0.342v0c1.143 0.281 2.107 0.215 2.89-0.199 0.777-0.415 1.314-1.224 1.61-2.426v0c0.339-1.377 0.23-2.479-0.325-3.304-0.56-0.833-1.382-1.384-2.467-1.65v0l-1.54-0.378c-0.029 0.117-0.102 0.385-0.218 0.804-0.109 0.414-0.243 0.919-0.403 1.513-0.155 0.603-0.316 1.245-0.484 1.927v0l-1.423 5.912c-0.244 0.994-0.434 1.778-0.567 2.351-0.128 0.575-0.209 0.992-0.246 1.252-0.03 0.261-0.057 0.441-0.081 0.539v0l2.326 0.964z" fill="#0023ff" data-fill-palette-color="accent"></path><path d="M92.394 187.313v0c-0.803-0.011-1.51-0.181-2.121-0.511-0.618-0.33-1.097-0.744-1.438-1.244-0.348-0.507-0.518-1.031-0.511-1.573v0c0.009-0.656 0.234-1.201 0.675-1.636 0.434-0.436 1.162-0.817 2.184-1.145v0l4.576-1.463 0.021-1.525c0.007-0.502-0.134-0.959-0.423-1.371-0.295-0.419-0.692-0.752-1.191-0.999-0.499-0.241-1.056-0.366-1.671-0.374v0c-0.502-0.007-0.844 0.092-1.028 0.297-0.183 0.205-0.299 0.618-0.348 1.239v0l-0.077 1.254c-0.718 0.151-1.326 0.119-1.825-0.095-0.499-0.214-0.745-0.562-0.739-1.044v0c0.005-0.341 0.16-0.68 0.466-1.017 0.306-0.33 0.701-0.649 1.187-0.958 0.479-0.301 0.998-0.558 1.556-0.771 0.552-0.213 1.095-0.356 1.632-0.43v0c1.465 0.02 2.64 0.421 3.526 1.202 0.886 0.782 1.33 1.815 1.333 3.1v0l-0.129 5.036c-0.005 0.355 0.007 0.719 0.035 1.095 0.022 0.368 0.061 0.643 0.119 0.824v0l1.922 0.388-0.012 0.923-1.483 0.521c-0.283 0.117-0.541 0.203-0.776 0.261-0.242 0.057-0.443 0.084-0.604 0.082v0c-0.622-0.008-1.019-0.365-1.189-1.07v0l-0.316-1.169 0.452 0.007c-0.666 0.727-1.309 1.273-1.929 1.639-0.614 0.36-1.238 0.535-1.874 0.527zM93.221 185.558v0c0.462 0.006 0.898-0.095 1.309-0.304 0.418-0.202 0.807-0.521 1.167-0.957v0l0.043-3.151-3.364 0.857c-0.483 0.114-0.83 0.3-1.041 0.558-0.218 0.258-0.329 0.584-0.335 0.979v0c-0.007 0.502 0.211 0.96 0.654 1.374 0.449 0.421 0.972 0.635 1.567 0.644z" fill="#0023ff" data-fill-palette-color="accent"></path><path d="M114.974 184.732l-6.79 1.358-0.301-1.045 1.734-0.797c0-0.102-0.015-0.28-0.046-0.533-0.029-0.247-0.084-0.59-0.165-1.031-0.076-0.449-0.177-0.985-0.302-1.608v0l-0.429-2.299c-0.13-0.649-0.285-1.287-0.464-1.913-0.173-0.627-0.325-1.112-0.455-1.454v0l-1.962-0.037-0.193-0.965 3.717-1.88 0.496 0.331 0.376 2.494 0.095 0.011c0.363-1.253 0.803-2.143 1.318-2.668 0.517-0.52 1.051-0.835 1.602-0.945v0c0.446-0.089 0.847-0.047 1.202 0.127 0.349 0.176 0.567 0.48 0.654 0.914v0c0.089 0.446-0.001 0.829-0.272 1.149-0.277 0.321-0.658 0.531-1.143 0.628v0c-0.354 0.071-0.708 0.06-1.061-0.033-0.36-0.092-0.714-0.246-1.065-0.463v0l0.567 0.071c-0.307 0.307-0.581 0.71-0.822 1.208-0.248 0.5-0.459 1.081-0.634 1.744v0l0.577 2.73c0.118 0.488 0.239 0.989 0.362 1.503 0.123 0.514 0.24 0.993 0.349 1.435 0.108 0.436 0.193 0.76 0.256 0.972v0l2.633-0.138z" fill="#0023ff" data-fill-palette-color="accent"></path><path d="M128.982 180.365v0c-0.743 0.305-1.46 0.426-2.151 0.362-0.698-0.061-1.301-0.254-1.811-0.579-0.519-0.329-0.881-0.745-1.087-1.246v0c-0.249-0.606-0.256-1.197-0.022-1.771 0.228-0.571 0.748-1.208 1.559-1.909v0l3.635-3.142-0.579-1.411c-0.191-0.464-0.5-0.829-0.927-1.095-0.436-0.269-0.932-0.42-1.488-0.452-0.553-0.026-1.114 0.078-1.684 0.312v0c-0.464 0.191-0.74 0.416-0.828 0.676-0.088 0.26-0.033 0.686 0.166 1.277v0l0.421 1.184c-0.601 0.42-1.173 0.63-1.716 0.628-0.543-0.001-0.906-0.225-1.089-0.67v0c-0.13-0.316-0.12-0.688 0.029-1.118 0.151-0.424 0.39-0.873 0.716-1.347 0.322-0.465 0.699-0.905 1.129-1.32 0.424-0.413 0.868-0.758 1.332-1.035v0c1.355-0.557 2.594-0.649 3.715-0.279 1.122 0.371 1.936 1.147 2.442 2.328v0l1.858 4.682c0.135 0.328 0.289 0.659 0.462 0.993 0.165 0.33 0.309 0.567 0.434 0.712v0l1.919-0.398 0.351 0.854-1.159 1.062c-0.214 0.218-0.418 0.4-0.611 0.544-0.2 0.147-0.374 0.251-0.523 0.312v0c-0.576 0.236-1.08 0.064-1.514-0.517v0l-0.749-0.951 0.418-0.171c-0.327 0.93-0.704 1.685-1.131 2.265-0.423 0.572-0.929 0.978-1.517 1.22zM129.054 178.426v0c0.427-0.175 0.789-0.44 1.084-0.793 0.305-0.349 0.537-0.796 0.698-1.339v0l-1.197-2.915-2.757 2.109c-0.4 0.294-0.646 0.602-0.739 0.922-0.099 0.323-0.073 0.667 0.076 1.032v0c0.191 0.464 0.571 0.8 1.141 1.007 0.578 0.211 1.143 0.203 1.694-0.023z" fill="#0023ff" data-fill-palette-color="accent"></path><path d="M154.453 163.946l-2.619 3.089-0.587-0.058-1.119-1.594-0.091 0.029c0.02 1.019-0.13 1.855-0.45 2.508-0.314 0.649-0.756 1.18-1.324 1.592v0c-0.921 0.668-1.906 1.047-2.955 1.139-1.04 0.093-2.039-0.088-2.996-0.542-0.958-0.454-1.796-1.177-2.515-2.168v0c-0.621-0.856-1.044-1.742-1.271-2.661-0.226-0.927-0.269-1.83-0.129-2.708 0.14-0.878 0.435-1.691 0.884-2.438 0.444-0.744 1.016-1.369 1.714-1.875v0c0.439-0.318 0.938-0.593 1.497-0.825 0.559-0.232 1.089-0.344 1.591-0.336v0c-0.212-0.292-0.494-0.67-0.847-1.134-0.343-0.462-0.705-0.943-1.084-1.444-0.375-0.505-0.713-0.954-1.014-1.348-0.292-0.391-0.499-0.654-0.622-0.788v0l-2.14 1.031-0.626-0.761 2.842-3.585 0.686 0.023c0.694 1.026 1.375 2.015 2.041 2.969 0.663 0.949 1.364 1.932 2.103 2.951v0l4.022 5.599c0.601 0.829 1.134 1.524 1.601 2.087 0.471 0.559 0.804 0.954 0.996 1.187v0l1.835-0.736zM147.694 167.446v0c0.455-0.33 0.814-0.747 1.076-1.252 0.266-0.499 0.422-1.161 0.468-1.987v0l-3.782-5.216c-0.709-0.329-1.382-0.436-2.018-0.322-0.627 0.116-1.176 0.344-1.647 0.686v0c-1.018 0.738-1.541 1.692-1.57 2.862-0.034 1.173 0.384 2.358 1.251 3.555v0c0.939 1.294 1.985 2.06 3.141 2.296 1.15 0.241 2.177 0.033 3.081-0.622z" fill="#0023ff" data-fill-palette-color="accent"></path><path d="M164.935 154.059l-4.365 4.78-0.863-0.707 1.05-1.76c-0.046-0.069-0.14-0.174-0.284-0.313-0.139-0.145-0.365-0.374-0.678-0.687-0.313-0.313-0.755-0.73-1.329-1.254v0l-1.459-1.333c-0.623-0.568-1.197-1.066-1.723-1.491-0.531-0.43-0.95-0.745-1.258-0.945v0l-1.664 1.198-0.727-0.663 2.047-3.893 0.615-0.049c0.419 0.464 0.837 0.909 1.254 1.335 0.427 0.426 0.934 0.907 1.522 1.444v0l2.794 2.551c0.677 0.618 1.247 1.12 1.709 1.506 0.467 0.381 0.774 0.611 0.92 0.69v0l1.657-1.205zM150.595 145.355v0c-0.347 0.38-0.769 0.589-1.264 0.626-0.496 0.037-0.929-0.114-1.299-0.452v0c-0.356-0.325-0.54-0.738-0.554-1.24-0.013-0.501 0.154-0.942 0.501-1.322v0c0.352-0.385 0.771-0.587 1.259-0.604 0.487-0.017 0.908 0.136 1.264 0.461v0c0.371 0.338 0.567 0.748 0.588 1.23 0.022 0.482-0.143 0.916-0.494 1.301z" fill="#0023ff" data-fill-palette-color="accent"></path><path d="M172.594 143.696v0c-0.402 0.624-0.873 1.2-1.412 1.728-0.548 0.53-1.082 0.938-1.601 1.225v0l-2.773-1.608 0.799-1.24 2.14 0.663c0.754-0.294 1.387-0.837 1.898-1.63v0c0.355-0.551 0.511-1.095 0.468-1.633-0.04-0.543-0.296-0.967-0.769-1.271v0c-0.456-0.294-0.944-0.382-1.465-0.264-0.527 0.114-1.282 0.507-2.265 1.179v0c-1.286 0.859-2.331 1.375-3.135 1.549-0.805 0.174-1.575 0.024-2.312-0.452v0c-0.607-0.391-1.024-0.918-1.249-1.581-0.229-0.657-0.268-1.387-0.117-2.189 0.149-0.811 0.493-1.636 1.033-2.474v0c0.304-0.472 0.654-0.928 1.048-1.366 0.385-0.436 0.756-0.766 1.114-0.989v0l2.803 1.413-0.766 1.189-2.099-0.505c-0.21 0.103-0.422 0.253-0.636 0.45-0.208 0.2-0.4 0.435-0.573 0.705v0c-0.377 0.585-0.542 1.143-0.495 1.675 0.047 0.532 0.29 0.939 0.729 1.222v0c0.506 0.326 1.039 0.395 1.598 0.206 0.559-0.189 1.38-0.623 2.463-1.302v0c1.22-0.782 2.213-1.236 2.979-1.363 0.772-0.123 1.501 0.036 2.187 0.478v0c0.911 0.587 1.401 1.464 1.469 2.63 0.072 1.161-0.282 2.345-1.061 3.555z" fill="#0023ff" data-fill-palette-color="accent"></path><path d="M181.318 125.56v0c-0.41 1.082-1.026 1.972-1.849 2.669-0.814 0.693-1.77 1.121-2.869 1.284-1.097 0.157-2.265 0-3.503-0.469v0c-1.326-0.503-2.372-1.207-3.138-2.112-0.763-0.912-1.248-1.908-1.454-2.988-0.197-1.084-0.096-2.125 0.304-3.125v0c0.571-1.45 1.486-2.41 2.744-2.878 1.255-0.461 2.762-0.359 4.519 0.308v0l0.507 0.192-3.261 8.605-1.239-0.47 2.561-6.756 0.248 0.448-0.591-0.224c-1.063-0.403-1.979-0.478-2.747-0.226-0.768 0.253-1.316 0.81-1.644 1.674v0c-0.199 0.525-0.237 1.087-0.112 1.685 0.122 0.604 0.438 1.175 0.95 1.712 0.518 0.54 1.252 0.99 2.203 1.351v0l0.338 0.128c1.533 0.581 2.872 0.652 4.018 0.214 1.15-0.43 1.952-1.242 2.405-2.437v0c0.254-0.669 0.351-1.312 0.291-1.929-0.056-0.608-0.293-1.266-0.711-1.976v0l0.915-0.458c0.777 0.895 1.251 1.834 1.423 2.814 0.17 0.987 0.067 1.975-0.308 2.964z" fill="#0023ff" data-fill-palette-color="accent"></path><path d="M0.433 94.01c0-3.733 3.026-6.758 6.758-6.758 3.733 0 6.758 3.026 6.759 6.758 0 3.733-3.026 6.758-6.759 6.759-3.733 0-6.758-3.026-6.758-6.759z" fill="#0023ff" data-fill-palette-color="accent"></path><path d="M173.429 94.01c0-3.733 3.026-6.758 6.759-6.758 3.733 0 6.758 3.026 6.758 6.758 0 3.733-3.026 6.758-6.758 6.759-3.733 0-6.758-3.026-6.759-6.759z" fill="#0023ff" data-fill-palette-color="accent"></path></g><g id="text-1"></g></svg></g></svg></g></svg></g><defs></defs></svg><rect width="395.52" height="120.8090309761049" fill="none" stroke="none" visibility="hidden"></rect></g></svg></g></svg>